<mxfile host="app.diagrams.net" modified="2022-11-18T10:56:08.611Z" agent="5.0 (Windows NT 10.0; Win64; x64) AppleWebKit/537.36 (KHTML, like Gecko) Chrome/107.0.0.0 Safari/537.36 Edg/107.0.1418.42" etag="_AQdfn9YLTwMvvZNc_kx" version="20.5.3" type="github">
  <diagram id="K0ar7Cwse-SMh7XNLmQT" name="PÃ¡gina-1">
    <mxGraphModel dx="982" dy="567" grid="1" gridSize="10" guides="1" tooltips="1" connect="1" arrows="1" fold="1" page="1" pageScale="1" pageWidth="1600" pageHeight="1200" math="0" shadow="0">
      <root>
        <mxCell id="0" />
        <mxCell id="1" parent="0" />
        <mxCell id="tJY3ev-YgHuVydlI8XcM-3" style="edgeStyle=orthogonalEdgeStyle;rounded=0;orthogonalLoop=1;jettySize=auto;html=1;entryX=1;entryY=0.5;entryDx=0;entryDy=0;strokeColor=none;endArrow=none;endFill=0;" edge="1" parent="1" source="tJY3ev-YgHuVydlI8XcM-1" target="tJY3ev-YgHuVydlI8XcM-2">
          <mxGeometry relative="1" as="geometry" />
        </mxCell>
        <mxCell id="tJY3ev-YgHuVydlI8XcM-4" style="edgeStyle=orthogonalEdgeStyle;rounded=0;orthogonalLoop=1;jettySize=auto;html=1;endArrow=none;endFill=0;" edge="1" parent="1" source="tJY3ev-YgHuVydlI8XcM-1" target="tJY3ev-YgHuVydlI8XcM-2">
          <mxGeometry relative="1" as="geometry" />
        </mxCell>
        <mxCell id="tJY3ev-YgHuVydlI8XcM-11" value="(0,n)" style="edgeStyle=none;rounded=0;orthogonalLoop=1;jettySize=auto;html=1;exitX=1;exitY=0.5;exitDx=0;exitDy=0;entryX=0;entryY=0.5;entryDx=0;entryDy=0;endArrow=none;endFill=0;" edge="1" parent="1" source="tJY3ev-YgHuVydlI8XcM-1" target="tJY3ev-YgHuVydlI8XcM-9">
          <mxGeometry relative="1" as="geometry" />
        </mxCell>
        <mxCell id="tJY3ev-YgHuVydlI8XcM-99" style="edgeStyle=none;rounded=0;orthogonalLoop=1;jettySize=auto;html=1;exitX=0;exitY=0.5;exitDx=0;exitDy=0;entryX=1;entryY=0.5;entryDx=0;entryDy=0;fontFamily=Helvetica;fontSize=12;fontColor=default;endArrow=none;endFill=0;" edge="1" parent="1" source="tJY3ev-YgHuVydlI8XcM-1" target="tJY3ev-YgHuVydlI8XcM-32">
          <mxGeometry relative="1" as="geometry" />
        </mxCell>
        <mxCell id="tJY3ev-YgHuVydlI8XcM-100" style="edgeStyle=none;rounded=0;orthogonalLoop=1;jettySize=auto;html=1;exitX=0;exitY=0.5;exitDx=0;exitDy=0;entryX=1;entryY=0.5;entryDx=0;entryDy=0;fontFamily=Helvetica;fontSize=12;fontColor=default;endArrow=none;endFill=0;" edge="1" parent="1" source="tJY3ev-YgHuVydlI8XcM-1" target="tJY3ev-YgHuVydlI8XcM-33">
          <mxGeometry relative="1" as="geometry" />
        </mxCell>
        <mxCell id="tJY3ev-YgHuVydlI8XcM-101" style="edgeStyle=none;rounded=0;orthogonalLoop=1;jettySize=auto;html=1;exitX=0;exitY=0.5;exitDx=0;exitDy=0;entryX=1;entryY=0.5;entryDx=0;entryDy=0;fontFamily=Helvetica;fontSize=12;fontColor=default;endArrow=none;endFill=0;" edge="1" parent="1" source="tJY3ev-YgHuVydlI8XcM-1" target="tJY3ev-YgHuVydlI8XcM-34">
          <mxGeometry relative="1" as="geometry" />
        </mxCell>
        <mxCell id="tJY3ev-YgHuVydlI8XcM-102" style="edgeStyle=none;rounded=0;orthogonalLoop=1;jettySize=auto;html=1;exitX=0;exitY=0.5;exitDx=0;exitDy=0;entryX=1;entryY=0.5;entryDx=0;entryDy=0;fontFamily=Helvetica;fontSize=12;fontColor=default;endArrow=none;endFill=0;" edge="1" parent="1" source="tJY3ev-YgHuVydlI8XcM-1" target="tJY3ev-YgHuVydlI8XcM-98">
          <mxGeometry relative="1" as="geometry" />
        </mxCell>
        <mxCell id="tJY3ev-YgHuVydlI8XcM-1" value="Pessoa" style="rounded=0;whiteSpace=wrap;html=1;" vertex="1" parent="1">
          <mxGeometry x="815" y="785" width="120" height="60" as="geometry" />
        </mxCell>
        <mxCell id="tJY3ev-YgHuVydlI8XcM-2" value="" style="triangle;whiteSpace=wrap;html=1;rotation=-90;" vertex="1" parent="1">
          <mxGeometry x="857" y="885" width="36" height="54" as="geometry" />
        </mxCell>
        <mxCell id="tJY3ev-YgHuVydlI8XcM-7" style="edgeStyle=none;rounded=0;orthogonalLoop=1;jettySize=auto;html=1;entryX=0;entryY=0.25;entryDx=0;entryDy=0;endArrow=none;endFill=0;" edge="1" parent="1" source="tJY3ev-YgHuVydlI8XcM-5" target="tJY3ev-YgHuVydlI8XcM-2">
          <mxGeometry relative="1" as="geometry" />
        </mxCell>
        <mxCell id="tJY3ev-YgHuVydlI8XcM-5" value="Pessoa Fisica" style="rounded=0;whiteSpace=wrap;html=1;" vertex="1" parent="1">
          <mxGeometry x="735" y="995" width="120" height="60" as="geometry" />
        </mxCell>
        <mxCell id="tJY3ev-YgHuVydlI8XcM-8" style="edgeStyle=none;rounded=0;orthogonalLoop=1;jettySize=auto;html=1;exitX=0.5;exitY=0;exitDx=0;exitDy=0;entryX=0;entryY=0.75;entryDx=0;entryDy=0;endArrow=none;endFill=0;" edge="1" parent="1" source="tJY3ev-YgHuVydlI8XcM-6" target="tJY3ev-YgHuVydlI8XcM-2">
          <mxGeometry relative="1" as="geometry" />
        </mxCell>
        <mxCell id="tJY3ev-YgHuVydlI8XcM-6" value="Pessoa Juridica" style="rounded=0;whiteSpace=wrap;html=1;" vertex="1" parent="1">
          <mxGeometry x="885" y="995" width="120" height="60" as="geometry" />
        </mxCell>
        <mxCell id="tJY3ev-YgHuVydlI8XcM-12" value="(0,n)" style="edgeStyle=none;rounded=0;orthogonalLoop=1;jettySize=auto;html=1;endArrow=none;endFill=0;" edge="1" parent="1" source="tJY3ev-YgHuVydlI8XcM-9" target="tJY3ev-YgHuVydlI8XcM-10">
          <mxGeometry relative="1" as="geometry" />
        </mxCell>
        <mxCell id="tJY3ev-YgHuVydlI8XcM-9" value="contrata" style="rhombus;whiteSpace=wrap;html=1;" vertex="1" parent="1">
          <mxGeometry x="1015" y="775" width="140" height="80" as="geometry" />
        </mxCell>
        <mxCell id="tJY3ev-YgHuVydlI8XcM-10" value="Servicos" style="rounded=0;whiteSpace=wrap;html=1;" vertex="1" parent="1">
          <mxGeometry x="1235" y="785" width="120" height="60" as="geometry" />
        </mxCell>
        <mxCell id="tJY3ev-YgHuVydlI8XcM-14" style="edgeStyle=none;rounded=0;orthogonalLoop=1;jettySize=auto;html=1;exitX=0.5;exitY=0;exitDx=0;exitDy=0;entryX=0.5;entryY=1;entryDx=0;entryDy=0;endArrow=none;endFill=0;" edge="1" parent="1" source="tJY3ev-YgHuVydlI8XcM-13" target="tJY3ev-YgHuVydlI8XcM-10">
          <mxGeometry relative="1" as="geometry" />
        </mxCell>
        <mxCell id="tJY3ev-YgHuVydlI8XcM-13" value="tipo" style="ellipse;whiteSpace=wrap;html=1;" vertex="1" parent="1">
          <mxGeometry x="1250" y="895" width="90" height="60" as="geometry" />
        </mxCell>
        <mxCell id="tJY3ev-YgHuVydlI8XcM-16" style="edgeStyle=none;rounded=0;orthogonalLoop=1;jettySize=auto;html=1;endArrow=none;endFill=0;" edge="1" parent="1" source="tJY3ev-YgHuVydlI8XcM-15" target="tJY3ev-YgHuVydlI8XcM-10">
          <mxGeometry relative="1" as="geometry" />
        </mxCell>
        <mxCell id="tJY3ev-YgHuVydlI8XcM-18" value="(0,n)" style="edgeStyle=none;rounded=0;orthogonalLoop=1;jettySize=auto;html=1;endArrow=none;endFill=0;" edge="1" parent="1" source="tJY3ev-YgHuVydlI8XcM-15" target="tJY3ev-YgHuVydlI8XcM-17">
          <mxGeometry relative="1" as="geometry">
            <Array as="points" />
          </mxGeometry>
        </mxCell>
        <mxCell id="tJY3ev-YgHuVydlI8XcM-15" value="associado" style="rhombus;whiteSpace=wrap;html=1;" vertex="1" parent="1">
          <mxGeometry x="1225" y="505" width="140" height="80" as="geometry" />
        </mxCell>
        <mxCell id="tJY3ev-YgHuVydlI8XcM-49" value="(1,1)" style="edgeStyle=none;rounded=0;orthogonalLoop=1;jettySize=auto;html=1;exitX=0;exitY=0.5;exitDx=0;exitDy=0;entryX=1;entryY=0.5;entryDx=0;entryDy=0;endArrow=none;endFill=0;" edge="1" parent="1" source="tJY3ev-YgHuVydlI8XcM-17" target="tJY3ev-YgHuVydlI8XcM-48">
          <mxGeometry relative="1" as="geometry" />
        </mxCell>
        <mxCell id="tJY3ev-YgHuVydlI8XcM-73" style="edgeStyle=none;rounded=0;orthogonalLoop=1;jettySize=auto;html=1;exitX=0.75;exitY=0;exitDx=0;exitDy=0;entryX=0;entryY=0.5;entryDx=0;entryDy=0;endArrow=none;endFill=0;dashed=1;" edge="1" parent="1" source="tJY3ev-YgHuVydlI8XcM-17" target="tJY3ev-YgHuVydlI8XcM-67">
          <mxGeometry relative="1" as="geometry" />
        </mxCell>
        <mxCell id="tJY3ev-YgHuVydlI8XcM-74" style="edgeStyle=none;rounded=0;orthogonalLoop=1;jettySize=auto;html=1;exitX=0.75;exitY=0;exitDx=0;exitDy=0;entryX=0;entryY=0.5;entryDx=0;entryDy=0;endArrow=none;endFill=0;" edge="1" parent="1" source="tJY3ev-YgHuVydlI8XcM-17" target="tJY3ev-YgHuVydlI8XcM-68">
          <mxGeometry relative="1" as="geometry" />
        </mxCell>
        <mxCell id="tJY3ev-YgHuVydlI8XcM-75" style="edgeStyle=none;rounded=0;orthogonalLoop=1;jettySize=auto;html=1;exitX=0.75;exitY=0;exitDx=0;exitDy=0;entryX=0;entryY=0.5;entryDx=0;entryDy=0;endArrow=none;endFill=0;" edge="1" parent="1" source="tJY3ev-YgHuVydlI8XcM-17" target="tJY3ev-YgHuVydlI8XcM-69">
          <mxGeometry relative="1" as="geometry" />
        </mxCell>
        <mxCell id="tJY3ev-YgHuVydlI8XcM-78" value="(1,1)" style="edgeStyle=none;rounded=0;orthogonalLoop=1;jettySize=auto;html=1;exitX=0.25;exitY=0;exitDx=0;exitDy=0;endArrow=none;endFill=0;" edge="1" parent="1" source="tJY3ev-YgHuVydlI8XcM-17" target="tJY3ev-YgHuVydlI8XcM-77">
          <mxGeometry relative="1" as="geometry" />
        </mxCell>
        <mxCell id="tJY3ev-YgHuVydlI8XcM-17" value="Processo" style="rounded=0;whiteSpace=wrap;html=1;" vertex="1" parent="1">
          <mxGeometry x="805" y="515" width="120" height="60" as="geometry" />
        </mxCell>
        <mxCell id="tJY3ev-YgHuVydlI8XcM-29" style="edgeStyle=none;rounded=0;orthogonalLoop=1;jettySize=auto;html=1;exitX=0.5;exitY=0;exitDx=0;exitDy=0;entryX=0.75;entryY=1;entryDx=0;entryDy=0;endArrow=none;endFill=0;" edge="1" parent="1" source="tJY3ev-YgHuVydlI8XcM-21" target="tJY3ev-YgHuVydlI8XcM-17">
          <mxGeometry relative="1" as="geometry" />
        </mxCell>
        <mxCell id="tJY3ev-YgHuVydlI8XcM-31" style="edgeStyle=none;rounded=0;orthogonalLoop=1;jettySize=auto;html=1;exitX=0.5;exitY=1;exitDx=0;exitDy=0;endArrow=none;endFill=0;" edge="1" parent="1" source="tJY3ev-YgHuVydlI8XcM-21" target="tJY3ev-YgHuVydlI8XcM-1">
          <mxGeometry relative="1" as="geometry" />
        </mxCell>
        <mxCell id="tJY3ev-YgHuVydlI8XcM-21" value="citada" style="rhombus;whiteSpace=wrap;html=1;" vertex="1" parent="1">
          <mxGeometry x="900" y="655" width="90" height="60" as="geometry" />
        </mxCell>
        <mxCell id="tJY3ev-YgHuVydlI8XcM-28" style="edgeStyle=none;rounded=0;orthogonalLoop=1;jettySize=auto;html=1;exitX=0.5;exitY=0;exitDx=0;exitDy=0;entryX=0.25;entryY=1;entryDx=0;entryDy=0;endArrow=none;endFill=0;" edge="1" parent="1" source="tJY3ev-YgHuVydlI8XcM-23" target="tJY3ev-YgHuVydlI8XcM-17">
          <mxGeometry relative="1" as="geometry" />
        </mxCell>
        <mxCell id="tJY3ev-YgHuVydlI8XcM-30" style="edgeStyle=none;rounded=0;orthogonalLoop=1;jettySize=auto;html=1;exitX=0.5;exitY=1;exitDx=0;exitDy=0;endArrow=none;endFill=0;" edge="1" parent="1" source="tJY3ev-YgHuVydlI8XcM-23" target="tJY3ev-YgHuVydlI8XcM-1">
          <mxGeometry relative="1" as="geometry" />
        </mxCell>
        <mxCell id="tJY3ev-YgHuVydlI8XcM-23" value="promove" style="rhombus;whiteSpace=wrap;html=1;" vertex="1" parent="1">
          <mxGeometry x="755" y="655" width="90" height="60" as="geometry" />
        </mxCell>
        <mxCell id="tJY3ev-YgHuVydlI8XcM-24" value="autor" style="text;html=1;resizable=0;autosize=1;align=center;verticalAlign=middle;points=[];fillColor=none;strokeColor=none;rounded=0;" vertex="1" parent="1">
          <mxGeometry x="735" y="715" width="50" height="30" as="geometry" />
        </mxCell>
        <mxCell id="tJY3ev-YgHuVydlI8XcM-25" value="rÃ©u" style="text;html=1;resizable=0;autosize=1;align=center;verticalAlign=middle;points=[];fillColor=none;strokeColor=none;rounded=0;" vertex="1" parent="1">
          <mxGeometry x="950" y="715" width="40" height="30" as="geometry" />
        </mxCell>
        <mxCell id="tJY3ev-YgHuVydlI8XcM-32" value="nome" style="ellipse;whiteSpace=wrap;html=1;" vertex="1" parent="1">
          <mxGeometry x="555" y="745" width="90" height="60" as="geometry" />
        </mxCell>
        <mxCell id="tJY3ev-YgHuVydlI8XcM-33" value="email" style="ellipse;whiteSpace=wrap;html=1;" vertex="1" parent="1">
          <mxGeometry x="555" y="785" width="90" height="60" as="geometry" />
        </mxCell>
        <mxCell id="tJY3ev-YgHuVydlI8XcM-34" value="endereco" style="ellipse;whiteSpace=wrap;html=1;" vertex="1" parent="1">
          <mxGeometry x="555" y="825" width="90" height="60" as="geometry" />
        </mxCell>
        <mxCell id="tJY3ev-YgHuVydlI8XcM-46" style="edgeStyle=none;rounded=0;orthogonalLoop=1;jettySize=auto;html=1;endArrow=none;endFill=0;" edge="1" parent="1" source="tJY3ev-YgHuVydlI8XcM-44" target="tJY3ev-YgHuVydlI8XcM-5">
          <mxGeometry relative="1" as="geometry" />
        </mxCell>
        <mxCell id="tJY3ev-YgHuVydlI8XcM-44" value="CPF" style="ellipse;whiteSpace=wrap;html=1;" vertex="1" parent="1">
          <mxGeometry x="595" y="995" width="90" height="60" as="geometry" />
        </mxCell>
        <mxCell id="tJY3ev-YgHuVydlI8XcM-47" style="edgeStyle=none;rounded=0;orthogonalLoop=1;jettySize=auto;html=1;endArrow=none;endFill=0;" edge="1" parent="1" source="tJY3ev-YgHuVydlI8XcM-45" target="tJY3ev-YgHuVydlI8XcM-6">
          <mxGeometry relative="1" as="geometry" />
        </mxCell>
        <mxCell id="tJY3ev-YgHuVydlI8XcM-45" value="CNPJ" style="ellipse;whiteSpace=wrap;html=1;" vertex="1" parent="1">
          <mxGeometry x="1040" y="995" width="90" height="60" as="geometry" />
        </mxCell>
        <mxCell id="tJY3ev-YgHuVydlI8XcM-51" value="(0,1)" style="edgeStyle=none;rounded=0;orthogonalLoop=1;jettySize=auto;html=1;exitX=0;exitY=0.5;exitDx=0;exitDy=0;entryX=1;entryY=0.5;entryDx=0;entryDy=0;endArrow=none;endFill=0;" edge="1" parent="1" source="tJY3ev-YgHuVydlI8XcM-48" target="tJY3ev-YgHuVydlI8XcM-50">
          <mxGeometry relative="1" as="geometry">
            <Array as="points">
              <mxPoint x="545" y="545" />
            </Array>
          </mxGeometry>
        </mxCell>
        <mxCell id="tJY3ev-YgHuVydlI8XcM-48" value="anexado" style="rhombus;whiteSpace=wrap;html=1;" vertex="1" parent="1">
          <mxGeometry x="575" y="505" width="140" height="80" as="geometry" />
        </mxCell>
        <mxCell id="tJY3ev-YgHuVydlI8XcM-50" value="Documento" style="rounded=0;whiteSpace=wrap;html=1;" vertex="1" parent="1">
          <mxGeometry x="385" y="515" width="120" height="60" as="geometry" />
        </mxCell>
        <mxCell id="tJY3ev-YgHuVydlI8XcM-53" style="edgeStyle=none;rounded=0;orthogonalLoop=1;jettySize=auto;html=1;exitX=0.5;exitY=1;exitDx=0;exitDy=0;entryX=0.5;entryY=0;entryDx=0;entryDy=0;endArrow=none;endFill=0;" edge="1" parent="1" source="tJY3ev-YgHuVydlI8XcM-52" target="tJY3ev-YgHuVydlI8XcM-17">
          <mxGeometry relative="1" as="geometry" />
        </mxCell>
        <mxCell id="tJY3ev-YgHuVydlI8XcM-55" value="(1,1)" style="edgeStyle=none;rounded=0;orthogonalLoop=1;jettySize=auto;html=1;exitX=0.5;exitY=0;exitDx=0;exitDy=0;entryX=0.5;entryY=1;entryDx=0;entryDy=0;endArrow=none;endFill=0;" edge="1" parent="1" source="tJY3ev-YgHuVydlI8XcM-52" target="tJY3ev-YgHuVydlI8XcM-54">
          <mxGeometry relative="1" as="geometry" />
        </mxCell>
        <mxCell id="tJY3ev-YgHuVydlI8XcM-52" value="tramita" style="rhombus;whiteSpace=wrap;html=1;" vertex="1" parent="1">
          <mxGeometry x="795" y="365" width="140" height="80" as="geometry" />
        </mxCell>
        <mxCell id="tJY3ev-YgHuVydlI8XcM-58" value="(0,n)" style="edgeStyle=none;rounded=0;orthogonalLoop=1;jettySize=auto;html=1;endArrow=none;endFill=0;" edge="1" parent="1" source="tJY3ev-YgHuVydlI8XcM-54" target="tJY3ev-YgHuVydlI8XcM-56">
          <mxGeometry relative="1" as="geometry" />
        </mxCell>
        <mxCell id="tJY3ev-YgHuVydlI8XcM-54" value="Vara" style="rounded=0;whiteSpace=wrap;html=1;" vertex="1" parent="1">
          <mxGeometry x="805" y="245" width="120" height="60" as="geometry" />
        </mxCell>
        <mxCell id="tJY3ev-YgHuVydlI8XcM-59" value="(1,1)" style="edgeStyle=none;rounded=0;orthogonalLoop=1;jettySize=auto;html=1;exitX=0;exitY=0.5;exitDx=0;exitDy=0;entryX=1;entryY=0.5;entryDx=0;entryDy=0;endArrow=none;endFill=0;" edge="1" parent="1" source="tJY3ev-YgHuVydlI8XcM-56" target="tJY3ev-YgHuVydlI8XcM-57">
          <mxGeometry relative="1" as="geometry" />
        </mxCell>
        <mxCell id="tJY3ev-YgHuVydlI8XcM-56" value="associada" style="rhombus;whiteSpace=wrap;html=1;" vertex="1" parent="1">
          <mxGeometry x="615" y="235" width="140" height="80" as="geometry" />
        </mxCell>
        <mxCell id="tJY3ev-YgHuVydlI8XcM-57" value="Tribunal" style="rounded=0;whiteSpace=wrap;html=1;" vertex="1" parent="1">
          <mxGeometry x="435" y="245" width="120" height="60" as="geometry" />
        </mxCell>
        <mxCell id="tJY3ev-YgHuVydlI8XcM-61" style="edgeStyle=none;rounded=0;orthogonalLoop=1;jettySize=auto;html=1;entryX=0.5;entryY=0;entryDx=0;entryDy=0;endArrow=none;endFill=0;" edge="1" parent="1" source="tJY3ev-YgHuVydlI8XcM-60" target="tJY3ev-YgHuVydlI8XcM-54">
          <mxGeometry relative="1" as="geometry" />
        </mxCell>
        <mxCell id="tJY3ev-YgHuVydlI8XcM-60" value="nomenclatura" style="ellipse;whiteSpace=wrap;html=1;" vertex="1" parent="1">
          <mxGeometry x="820" y="145" width="90" height="60" as="geometry" />
        </mxCell>
        <mxCell id="tJY3ev-YgHuVydlI8XcM-65" style="edgeStyle=none;rounded=0;orthogonalLoop=1;jettySize=auto;html=1;endArrow=none;endFill=0;" edge="1" parent="1" source="tJY3ev-YgHuVydlI8XcM-62" target="tJY3ev-YgHuVydlI8XcM-57">
          <mxGeometry relative="1" as="geometry" />
        </mxCell>
        <mxCell id="tJY3ev-YgHuVydlI8XcM-62" value="endereco" style="ellipse;whiteSpace=wrap;html=1;" vertex="1" parent="1">
          <mxGeometry x="400" y="145" width="90" height="60" as="geometry" />
        </mxCell>
        <mxCell id="tJY3ev-YgHuVydlI8XcM-64" style="edgeStyle=none;rounded=0;orthogonalLoop=1;jettySize=auto;html=1;endArrow=none;endFill=0;" edge="1" parent="1" source="tJY3ev-YgHuVydlI8XcM-63" target="tJY3ev-YgHuVydlI8XcM-57">
          <mxGeometry relative="1" as="geometry" />
        </mxCell>
        <mxCell id="tJY3ev-YgHuVydlI8XcM-63" value="nomenclatura" style="ellipse;whiteSpace=wrap;html=1;" vertex="1" parent="1">
          <mxGeometry x="505" y="145" width="90" height="60" as="geometry" />
        </mxCell>
        <mxCell id="tJY3ev-YgHuVydlI8XcM-70" style="edgeStyle=none;rounded=0;orthogonalLoop=1;jettySize=auto;html=1;exitX=0;exitY=0.5;exitDx=0;exitDy=0;entryX=0.75;entryY=0;entryDx=0;entryDy=0;endArrow=none;endFill=0;" edge="1" parent="1" source="tJY3ev-YgHuVydlI8XcM-66" target="tJY3ev-YgHuVydlI8XcM-17">
          <mxGeometry relative="1" as="geometry" />
        </mxCell>
        <mxCell id="tJY3ev-YgHuVydlI8XcM-66" value="dt_abertura" style="ellipse;whiteSpace=wrap;html=1;" vertex="1" parent="1">
          <mxGeometry x="975" y="355" width="90" height="60" as="geometry" />
        </mxCell>
        <mxCell id="tJY3ev-YgHuVydlI8XcM-67" value="dt_fechamento" style="ellipse;whiteSpace=wrap;html=1;" vertex="1" parent="1">
          <mxGeometry x="975" y="395" width="90" height="60" as="geometry" />
        </mxCell>
        <mxCell id="tJY3ev-YgHuVydlI8XcM-68" value="numero" style="ellipse;whiteSpace=wrap;html=1;" vertex="1" parent="1">
          <mxGeometry x="975" y="435" width="90" height="60" as="geometry" />
        </mxCell>
        <mxCell id="tJY3ev-YgHuVydlI8XcM-69" value="situacao" style="ellipse;whiteSpace=wrap;html=1;" vertex="1" parent="1">
          <mxGeometry x="975" y="475" width="90" height="60" as="geometry" />
        </mxCell>
        <mxCell id="tJY3ev-YgHuVydlI8XcM-85" style="edgeStyle=none;rounded=0;orthogonalLoop=1;jettySize=auto;html=1;exitX=0;exitY=0.5;exitDx=0;exitDy=0;entryX=1;entryY=0.5;entryDx=0;entryDy=0;fontFamily=Helvetica;fontSize=12;fontColor=default;endArrow=none;endFill=0;" edge="1" parent="1" source="tJY3ev-YgHuVydlI8XcM-76" target="tJY3ev-YgHuVydlI8XcM-81">
          <mxGeometry relative="1" as="geometry" />
        </mxCell>
        <mxCell id="tJY3ev-YgHuVydlI8XcM-76" value="Audiencia" style="rounded=0;whiteSpace=wrap;html=1;" vertex="1" parent="1">
          <mxGeometry x="415" y="385" width="120" height="60" as="geometry" />
        </mxCell>
        <mxCell id="tJY3ev-YgHuVydlI8XcM-79" value="(0,n)" style="edgeStyle=none;rounded=0;orthogonalLoop=1;jettySize=auto;html=1;exitX=0;exitY=0.5;exitDx=0;exitDy=0;entryX=1;entryY=0.5;entryDx=0;entryDy=0;endArrow=none;endFill=0;" edge="1" parent="1" source="tJY3ev-YgHuVydlI8XcM-77" target="tJY3ev-YgHuVydlI8XcM-76">
          <mxGeometry relative="1" as="geometry" />
        </mxCell>
        <mxCell id="tJY3ev-YgHuVydlI8XcM-77" value="associada" style="rhombus;whiteSpace=wrap;html=1;" vertex="1" parent="1">
          <mxGeometry x="595" y="375" width="140" height="80" as="geometry" />
        </mxCell>
        <mxCell id="tJY3ev-YgHuVydlI8XcM-82" style="edgeStyle=none;rounded=0;orthogonalLoop=1;jettySize=auto;html=1;exitX=1;exitY=0.5;exitDx=0;exitDy=0;entryX=0;entryY=0.5;entryDx=0;entryDy=0;fontFamily=Helvetica;fontSize=12;fontColor=default;endArrow=none;endFill=0;" edge="1" parent="1" source="tJY3ev-YgHuVydlI8XcM-80" target="tJY3ev-YgHuVydlI8XcM-76">
          <mxGeometry relative="1" as="geometry" />
        </mxCell>
        <mxCell id="tJY3ev-YgHuVydlI8XcM-80" value="data" style="ellipse;whiteSpace=wrap;html=1;" vertex="1" parent="1">
          <mxGeometry x="265" y="350" width="90" height="60" as="geometry" />
        </mxCell>
        <mxCell id="tJY3ev-YgHuVydlI8XcM-81" value="recomendacao" style="ellipse;whiteSpace=wrap;html=1;" vertex="1" parent="1">
          <mxGeometry x="265" y="420" width="90" height="60" as="geometry" />
        </mxCell>
        <mxCell id="tJY3ev-YgHuVydlI8XcM-86" value="" style="ellipse;whiteSpace=wrap;html=1;fillStyle=hatch;" vertex="1" parent="1">
          <mxGeometry x="260" y="415" width="100" height="70" as="geometry" />
        </mxCell>
        <mxCell id="tJY3ev-YgHuVydlI8XcM-88" value="(1,1)" style="edgeStyle=none;rounded=0;orthogonalLoop=1;jettySize=auto;html=1;entryX=0.073;entryY=0.988;entryDx=0;entryDy=0;entryPerimeter=0;fontFamily=Helvetica;fontSize=12;fontColor=default;endArrow=none;endFill=0;" edge="1" parent="1" source="tJY3ev-YgHuVydlI8XcM-87" target="tJY3ev-YgHuVydlI8XcM-17">
          <mxGeometry relative="1" as="geometry" />
        </mxCell>
        <mxCell id="tJY3ev-YgHuVydlI8XcM-87" value="associada" style="rhombus;whiteSpace=wrap;html=1;" vertex="1" parent="1">
          <mxGeometry x="575" y="605" width="140" height="80" as="geometry" />
        </mxCell>
        <mxCell id="tJY3ev-YgHuVydlI8XcM-90" value="(0,n)" style="edgeStyle=none;rounded=0;orthogonalLoop=1;jettySize=auto;html=1;exitX=1;exitY=0.5;exitDx=0;exitDy=0;entryX=0;entryY=0.5;entryDx=0;entryDy=0;fontFamily=Helvetica;fontSize=12;fontColor=default;endArrow=none;endFill=0;" edge="1" parent="1" source="tJY3ev-YgHuVydlI8XcM-89" target="tJY3ev-YgHuVydlI8XcM-87">
          <mxGeometry relative="1" as="geometry" />
        </mxCell>
        <mxCell id="tJY3ev-YgHuVydlI8XcM-96" style="edgeStyle=none;rounded=0;orthogonalLoop=1;jettySize=auto;html=1;exitX=0;exitY=0.5;exitDx=0;exitDy=0;entryX=1;entryY=0.5;entryDx=0;entryDy=0;fontFamily=Helvetica;fontSize=12;fontColor=default;endArrow=none;endFill=0;" edge="1" parent="1" source="tJY3ev-YgHuVydlI8XcM-89" target="tJY3ev-YgHuVydlI8XcM-92">
          <mxGeometry relative="1" as="geometry" />
        </mxCell>
        <mxCell id="tJY3ev-YgHuVydlI8XcM-97" style="edgeStyle=none;rounded=0;orthogonalLoop=1;jettySize=auto;html=1;exitX=0;exitY=0.5;exitDx=0;exitDy=0;entryX=1;entryY=0.5;entryDx=0;entryDy=0;fontFamily=Helvetica;fontSize=12;fontColor=default;endArrow=none;endFill=0;" edge="1" parent="1" source="tJY3ev-YgHuVydlI8XcM-89" target="tJY3ev-YgHuVydlI8XcM-94">
          <mxGeometry relative="1" as="geometry" />
        </mxCell>
        <mxCell id="tJY3ev-YgHuVydlI8XcM-89" value="Despesa" style="rounded=0;whiteSpace=wrap;html=1;" vertex="1" parent="1">
          <mxGeometry x="385" y="615" width="120" height="60" as="geometry" />
        </mxCell>
        <mxCell id="tJY3ev-YgHuVydlI8XcM-92" value="valor" style="ellipse;whiteSpace=wrap;html=1;" vertex="1" parent="1">
          <mxGeometry x="235" y="585" width="90" height="60" as="geometry" />
        </mxCell>
        <mxCell id="tJY3ev-YgHuVydlI8XcM-94" value="dt_lancamento" style="ellipse;whiteSpace=wrap;html=1;" vertex="1" parent="1">
          <mxGeometry x="235" y="635" width="90" height="60" as="geometry" />
        </mxCell>
        <mxCell id="tJY3ev-YgHuVydlI8XcM-98" value="cliente?" style="ellipse;whiteSpace=wrap;html=1;" vertex="1" parent="1">
          <mxGeometry x="555" y="870" width="90" height="60" as="geometry" />
        </mxCell>
      </root>
    </mxGraphModel>
  </diagram>
</mxfile>
